Coordinates
version=1
nRows=29
nColumns=24
inDegrees=yes

Units are S.I. units (second, meters, Newtons, ...)
Angles are in degrees.

endheader
time	pelvis_tilt	pelvis_list	pelvis_rotation	pelvis_tx	pelvis_ty	pelvis_tz	hip_flexion_r	hip_adduction_r	hip_rotation_r	knee_angle_r	ankle_angle_r	subtalar_angle_r	mtp_angle_r	hip_flexion_l	hip_adduction_l	hip_rotation_l	knee_angle_l	ankle_angle_l	subtalar_angle_l	mtp_angle_l	lumbar_extension	lumbar_bending	lumbar_rotation
      1.26750000	     -2.87844276	     -3.57394370	     -8.09195995	     -0.00514995	      0.96215010	      0.34396049	    -16.46162923	      4.76313367	     -0.46107881	     -8.09216316	      8.85457969	      7.64182494	     12.95836641	     27.52214210	     -4.31920453	     -7.21844638	      1.65921276	      5.98481714	     -1.63446511	      0.15952651	     -0.19107712	      7.88729821	     11.11365498
      1.27166667	     -2.92787615	     -3.45103357	     -8.17322720	      0.00092535	      0.96143101	      0.34369219	    -16.60973015	      4.52350132	     -0.50525464	     -8.35314534	      8.64048098	      7.69002540	     13.03520609	     27.54551405	     -4.19928441	     -7.27153763	      1.51133032	      5.86173029	     -1.87662146	      0.16547084	     -0.05467984	      7.75846068	     11.16885754
      1.27583333	     -2.95282043	     -3.34653904	     -8.21935862	      0.00697251	      0.96074191	      0.34333000	    -16.75868151	      4.29840029	     -0.66081768	     -8.65763645	      8.46096417	      8.04465729	     13.40603273	     27.54944460	     -4.07229611	     -7.11551741	      1.30701229	      5.62250676	     -2.51907222	      0.20986118	      0.02508757	      7.63793988	     11.30084534
      1.28000000	     -3.02305337	     -3.21690371	     -8.27316456	      0.01308389	      0.96005061	      0.34300062	    -16.86078627	      4.06014572	     -0.74377754	     -8.95346920	      8.23250007	      8.16188029	     13.97399139	     27.62356909	     -3.93511610	     -7.03259196	      1.00143544	      5.39770140	     -3.05633593	      0.29329845	      0.18098682	      7.49779411	     11.34307795
      1.28416667	     -3.04937593	     -3.05938423	     -8.29947509	      0.01928234	      0.95944637	      0.34265157	    -17.01735430	      3.79075807	     -0.88768328	     -9.21851578	      7.89318572	      8.21301392	     17.66236422	     27.67609159	     -3.75931675	     -7.03660418	      0.60743560	      5.15365073	     -3.42746574	      0.93388187	      0.30303307	      7.31245822	     11.32871096
      1.28833333	     -3.14571168	     -2.92373511	     -8.34972222	      0.02544810	      0.95881480	      0.34234032	    -17.09271730	      3.56346391	     -0.86723230	     -9.50614927	      7.64290395	      8.12589511	     17.70364981	     27.81267944	     -3.62456398	     -6.98259021	      0.14401046	      4.85684411	     -3.93801979	      0.93887835	      0.50110805	      7.16762476	     11.42276910
      1.29250000	     -3.22990677	     -2.75934959	     -8.38233292	      0.03168115	      0.95823522	      0.34198033	    -17.16659620	      3.30380531	     -0.90764304	     -9.81171428	      7.34273084	      8.08560516	     17.78370784	     27.92843011	     -3.44629187	     -6.88486647	     -0.33602256	      4.51814468	     -4.54309028	      0.95570627	      0.69529542	      6.98909315	     11.46363858
      1.29666667	     -3.31156851	     -2.58639013	     -8.40776498	      0.03794436	      0.95769581	      0.34160669	    -17.23087531	      3.03759554	     -0.95302106	    -10.13440322	      7.01922499	      8.04297450	     17.90747147	     28.04725616	     -3.25425622	     -6.77160424	     -0.85834852	      4.15742761	     -5.18599848	      0.98532416	      0.88704175	      6.79574344	     11.49141478
      1.30083333	     -3.40464926	     -2.39496558	     -8.42603899	      0.04424580	      0.95718771	      0.34120482	    -17.26898039	      2.75542607	     -0.99724346	    -10.47629007	      6.66618206	      7.97623408	     18.07391346	     28.18190858	     -3.03935060	     -6.64897448	     -1.41169705	      3.75697412	     -5.84961134	      1.02638707	      1.10562172	      6.59692569	     11.51703212
      1.30500000	     -3.48416610	     -2.19245175	     -8.44268466	      0.05056403	      0.95673834	      0.34078552	    -17.29547133	      2.45875269	     -1.06062909	    -10.86265491	      6.31634651	      7.90049215	     18.40250252	     28.29579709	     -2.80455758	     -6.48986852	     -1.97430744	      3.34065391	     -6.63336813	      1.11183671	      1.29722270	      6.36185550	     11.52625310
      1.30916667	     -3.61209490	     -1.99012646	     -8.43566827	      0.05692464	      0.95628095	      0.34035765	    -17.28440392	      2.18502348	     -1.08189225	    -11.20666979	      5.84486167	      7.77350584	     18.62989963	     28.49253302	     -2.57252295	     -6.39651316	     -2.61270658	      2.88358169	     -7.19382056	      1.16759533	      1.56573776	      6.14276744	     11.54486905
      1.31333333	     -3.70510890	     -1.76197284	     -8.43804886	      0.06329533	      0.95591488	      0.33988946	    -17.25974258	      1.86884795	     -1.14155336	    -11.64652458	      5.43552646	      7.61732202	     19.12351025	     28.61904343	     -2.29910306	     -6.21200736	     -3.20290002	      2.41241562	     -8.00451562	      1.29058991	      1.77890785	      5.89403655	     11.54217485
      1.31750000	     -3.83150189	     -1.53015160	     -8.40822323	      0.06972865	      0.95555503	      0.33942432	    -17.22991316	      1.57486327	     -1.15769520	    -12.00862661	      4.87873976	      7.45067344	     19.37852329	     28.82347380	     -2.02571001	     -6.15215453	     -3.88503524	      1.93607932	     -8.47205814	      1.34867174	      2.05813816	      5.64028725	     11.55217515
      1.32166667	     -3.92882196	     -1.26186699	     -8.37797816	      0.07616330	      0.95528048	      0.33888552	    -17.16321035	      1.22689054	     -1.23697786	    -12.50296286	      4.46459495	      7.22490761	     20.22329096	     28.94621950	     -1.68826670	     -5.92657901	     -4.47139460	      1.42056044	     -9.33189948	      1.54304908	      2.30283107	      5.32908188	     11.53347848
      1.32583333	     -4.00857676	     -1.01177646	     -8.32410909	      0.08261784	      0.95507629	      0.33833296	    -17.12178036	      0.90100036	     -1.34961523	    -12.94762857	      3.68103476	      7.02869531	     24.84953595	     29.09173963	     -1.37067815	     -5.84684728	     -5.14835410	      0.94226634	     -9.81202515	      2.57518959	      2.51433551	      5.05302598	     11.52924886
      1.33000000	     -4.17781460	     -0.76860804	     -8.30125961	      0.08904011	      0.95483464	      0.33783934	    -16.95201835	      0.60531804	     -1.29998525	    -13.46423895	      3.09149747	      6.75467177	     24.89568415	     29.34491440	     -1.09067681	     -5.81831271	     -5.86921687	      0.50468331	    -10.21593421	      2.57338168	      2.84163677	      4.79146400	     11.52907629
      1.33416667	     -4.29021556	     -0.51273838	     -8.25360023	      0.09546975	      0.95470416	      0.33727003	    -16.81110176	      0.28834667	     -1.30971726	    -14.03273937	      2.44168662	      6.46378584	     25.03021116	     29.50829801	     -0.76477455	     -5.68172132	     -6.53149972	      0.05950592	    -10.78729710	      2.58239005	      3.09311205	      4.51187742	     11.51761524
      1.33833333	     -4.40614507	     -0.23928177	     -8.19512407	      0.10192031	      0.95462335	      0.33668042	    -16.64579571	     -0.04227185	     -1.32011509	    -14.62442963	      1.73900968	      6.18616420	     25.22094226	     29.67649417	     -0.41794876	     -5.57264445	     -7.20117996	     -0.36352337	    -11.26523344	      2.59652776	      3.35280380	      4.21084055	     11.50632770
      1.34250000	     -4.52213643	      0.05838538	     -8.11788641	      0.10839526	      0.95458823	      0.33605259	    -16.45534285	     -0.39255512	     -1.34066266	    -15.25521125	      1.05255232	      5.88236046	     25.64376062	     29.83062968	     -0.03281350	     -5.43031364	     -7.84277705	     -0.78516897	    -11.79068573	      2.63005566	      3.63109733	      3.86527035	     11.49301726
      1.34666667	     -4.61603737	      0.32717642	     -8.03683559	      0.11484548	      0.95463733	      0.33544765	    -16.27153363	     -0.70812974	     -1.32962957	    -15.90002659	      0.20013785	      5.60149391	     25.80359687	     29.98693405	      0.31215509	     -5.40650362	     -8.54927160	     -1.12730600	    -12.02865966	      2.63812852	      3.86810335	      3.55699441	     11.48828428
      1.35083333	     -4.72303472	      0.60809555	     -7.95607606	      0.12126815	      0.95471310	      0.33480067	    -16.02428062	     -1.03756248	     -1.31796256	    -16.62907608	     -0.64370352	      5.28368796	     26.02337235	     30.13709442	      0.67815636	     -5.31898725	     -9.21688364	     -1.46088661	    -12.38612639	      2.64734461	      4.11229828	      3.24500499	     11.48235372
      1.35500000	     -4.78751272	      0.92386320	     -7.88085371	      0.12771889	      0.95488717	      0.33415982	    -15.78221077	     -1.41312732	     -1.31631681	    -17.42450269	     -1.46544908	      4.94603075	     26.15028306	     30.21879447	      1.07862720	     -5.27728798	     -9.84558172	     -1.68168522	    -12.59426350	      2.65135455	      4.32011721	      2.86639480	     11.46666369
      1.35916667	     -4.81225636	      1.23670846	     -7.80607738	      0.13413146	      0.95516889	      0.33345259	    -15.55782295	     -1.79929688	     -1.32379080	    -18.22637194	     -2.47739743	      4.66866945	     30.41991417	     30.22325345	      1.50312080	     -5.14008937	    -10.39440720	     -2.09473887	    -13.17312351	      2.75971692	      4.45571714	      2.51584655	     11.44930889
      1.36333333	     -4.92668021	      1.49539707	     -7.69393905	      0.14045865	      0.95532935	      0.33275538	    -15.19200225	     -2.09072459	     -1.29785895	    -19.13862591	     -3.39760396	      4.30043288	     30.47181578	     30.38253566	      1.85261590	     -5.07921505	    -11.08265756	     -2.22268396	    -13.26211917	      2.75687003	      4.69981815	      2.22518208	     11.45886462
      1.36750000	     -4.99520711	      1.77745583	     -7.60565582	      0.14678547	      0.95561332	      0.33206916	    -14.84271265	     -2.41863350	     -1.23815099	    -20.08506847	     -4.37037746	      3.94180355	     30.54470206	     30.45471816	      2.22650273	     -5.03430440	    -11.69596194	     -2.38648454	    -13.43835397	      2.74798613	      4.88751369	      1.90388855	     11.46184902
      1.37166667	     -5.04520291	      2.06176015	     -7.51329646	      0.15307773	      0.95594496	      0.33136815	    -14.47639626	     -2.75025015	     -1.17862319	    -21.08534696	     -5.37896944	      3.59663859	     30.63481364	     30.48957083	      2.60920857	     -4.98177002	    -12.27335819	     -2.53340445	    -13.61376854	      2.73438418	      5.04826833	      1.57520613	     11.46375072
      1.37583333	     -5.08350159	      2.34480781	     -7.42102526	      0.15933209	      0.95631051	      0.33065713	    -14.08346498	     -3.08250582	     -1.11699681	    -22.14546674	     -6.40435827	      3.26731421	     30.73356642	     30.49845040	      2.99277901	     -4.93832408	    -12.82628245	     -2.64978524	    -13.76750293	      2.71598296	      5.19028993	      1.24481775	     11.46441058
      1.38000000	     -5.12136331	      2.62104693	     -7.33392977	      0.16552991	      0.95670562	      0.32994555	    -13.64871392	     -3.40746179	     -1.03957670	    -23.26774215	     -7.44226543	      2.93440505	     30.82864514	     30.49328577	      3.36676177	     -4.90605662	    -13.35248818	     -2.74023204	    -13.89812872	      2.69430697	      5.32535951	      0.92701202	     11.46580900
      1.38416667	     -5.16623987	      2.89031125	     -7.25396041	      0.17165970	      0.95709649	      0.32922585	    -13.16369124	     -3.72462995	     -0.93729217	    -24.45186622	     -8.47640618	      2.60598298	     31.09560890	     30.48047967	      3.73681665	     -4.84892824	    -13.85069938	     -2.79779358	    -14.11262402	      2.62186881	      5.46050252	      0.61984353	     11.49688766
